<mxfile host="Electron" agent="Mozilla/5.0 (Windows NT 10.0; Win64; x64) AppleWebKit/537.36 (KHTML, like Gecko) draw.io/26.0.4 Chrome/128.0.6613.186 Electron/32.2.5 Safari/537.36" version="26.0.4">
  <diagram name="Page-1" id="FKac5WE30fIFghjc_WgK">
    <mxGraphModel dx="989" dy="577" grid="1" gridSize="10" guides="1" tooltips="1" connect="1" arrows="1" fold="1" page="1" pageScale="1" pageWidth="1100" pageHeight="850" math="0" shadow="0">
      <root>
        <mxCell id="0" />
        <mxCell id="1" parent="0" />
        <mxCell id="62Jn57mrGyI6FyLBudmx-4" value="" style="rounded=1;whiteSpace=wrap;html=1;fillColor=#dae8fc;strokeColor=#6c8ebf;fillStyle=zigzag-line;" parent="1" vertex="1">
          <mxGeometry x="134.99" y="160" width="315.01" height="350" as="geometry" />
        </mxCell>
        <mxCell id="62Jn57mrGyI6FyLBudmx-6" value="" style="shape=image;verticalLabelPosition=bottom;labelBackgroundColor=default;verticalAlign=top;aspect=fixed;imageAspect=0;image=https://1000marcas.net/wp-content/uploads/2021/05/Docker-Logo-2-500x281.png;clipPath=inset(25.74% 0.67% 26.92% 0%);" parent="1" vertex="1">
          <mxGeometry x="350" y="166.11" width="74.49" height="20" as="geometry" />
        </mxCell>
        <mxCell id="62Jn57mrGyI6FyLBudmx-18" value="" style="group" parent="1" vertex="1" connectable="0">
          <mxGeometry x="175" y="200" width="120" height="40" as="geometry" />
        </mxCell>
        <mxCell id="62Jn57mrGyI6FyLBudmx-11" value="" style="rounded=1;whiteSpace=wrap;html=1;" parent="62Jn57mrGyI6FyLBudmx-18" vertex="1">
          <mxGeometry width="120" height="40" as="geometry" />
        </mxCell>
        <mxCell id="62Jn57mrGyI6FyLBudmx-12" value="" style="shape=image;verticalLabelPosition=bottom;labelBackgroundColor=default;verticalAlign=top;aspect=fixed;imageAspect=0;image=https://extassisnetwork.com/tutoriales/wp-content/uploads/Comandos-de-Nginx-que-usted-debe-saber.jpg;clipPath=inset(7.58% 1.67% 8.33% 1%);" parent="62Jn57mrGyI6FyLBudmx-18" vertex="1">
          <mxGeometry x="13" y="2.1299999999999955" width="94" height="35.73287671232877" as="geometry" />
        </mxCell>
        <mxCell id="62Jn57mrGyI6FyLBudmx-21" value="" style="group;" parent="1" vertex="1" connectable="0">
          <mxGeometry x="170" y="280" width="130" height="130" as="geometry" />
        </mxCell>
        <mxCell id="rPnjrxC-N22dYR6Ftgcd-1" value="" style="rounded=1;whiteSpace=wrap;html=1;fillColor=#d5e8d4;strokeColor=#82b366;" parent="62Jn57mrGyI6FyLBudmx-21" vertex="1">
          <mxGeometry x="-10" y="-10" width="140" height="130" as="geometry" />
        </mxCell>
        <mxCell id="62Jn57mrGyI6FyLBudmx-17" value="" style="rounded=1;whiteSpace=wrap;html=1;" parent="62Jn57mrGyI6FyLBudmx-21" vertex="1">
          <mxGeometry width="120" height="43.33333333333333" as="geometry" />
        </mxCell>
        <mxCell id="62Jn57mrGyI6FyLBudmx-20" value="" style="shape=image;verticalLabelPosition=bottom;labelBackgroundColor=default;verticalAlign=top;aspect=fixed;imageAspect=0;image=https://media2.dev.to/dynamic/image/width=800%2Cheight=%2Cfit=scale-down%2Cgravity=auto%2Cformat=auto/https%3A%2F%2Fcdn-images-1.medium.com%2Fmax%2F1024%2F1%2AU3OFfUPCKV7qMmLRRiiYDA.jpeg;clipPath=inset(24.04% 18.67% 31.73% 9.67%);" parent="62Jn57mrGyI6FyLBudmx-21" vertex="1">
          <mxGeometry x="13.259999999999991" y="10.833333333333332" width="93.48" height="20" as="geometry" />
        </mxCell>
        <mxCell id="62Jn57mrGyI6FyLBudmx-25" value="" style="group" parent="1" vertex="1" connectable="0">
          <mxGeometry x="170" y="350" width="120" height="40" as="geometry" />
        </mxCell>
        <mxCell id="62Jn57mrGyI6FyLBudmx-19" value="" style="rounded=1;whiteSpace=wrap;html=1;" parent="62Jn57mrGyI6FyLBudmx-25" vertex="1">
          <mxGeometry width="120" height="40" as="geometry" />
        </mxCell>
        <mxCell id="62Jn57mrGyI6FyLBudmx-15" value="" style="shape=image;verticalLabelPosition=bottom;labelBackgroundColor=default;verticalAlign=top;aspect=fixed;imageAspect=0;image=https://flask-es.readthedocs.io/_images/flask-horizontal.png;" parent="62Jn57mrGyI6FyLBudmx-25" vertex="1">
          <mxGeometry x="13.5" y="4.949999999999989" width="93" height="30.1" as="geometry" />
        </mxCell>
        <mxCell id="62Jn57mrGyI6FyLBudmx-26" value="" style="group" parent="1" vertex="1" connectable="0">
          <mxGeometry x="170" y="420" width="120" height="40" as="geometry" />
        </mxCell>
        <mxCell id="62Jn57mrGyI6FyLBudmx-22" value="" style="rounded=1;whiteSpace=wrap;html=1;" parent="62Jn57mrGyI6FyLBudmx-26" vertex="1">
          <mxGeometry width="120" height="40" as="geometry" />
        </mxCell>
        <mxCell id="62Jn57mrGyI6FyLBudmx-24" value="" style="shape=image;verticalLabelPosition=bottom;labelBackgroundColor=default;verticalAlign=top;aspect=fixed;imageAspect=0;image=https://sysadm.es/wp-content/uploads/2018/04/psql.png;clipPath=inset(12.32% 0.33% 13.77% 0%);" parent="62Jn57mrGyI6FyLBudmx-26" vertex="1">
          <mxGeometry x="11.960000000000008" y="3.6100000000000136" width="96.07" height="32.77304347826087" as="geometry" />
        </mxCell>
        <mxCell id="62Jn57mrGyI6FyLBudmx-28" style="edgeStyle=orthogonalEdgeStyle;rounded=0;orthogonalLoop=1;jettySize=auto;html=1;exitX=0.5;exitY=1;exitDx=0;exitDy=0;entryX=0.5;entryY=0;entryDx=0;entryDy=0;startArrow=classic;startFill=1;" parent="1" source="62Jn57mrGyI6FyLBudmx-19" target="62Jn57mrGyI6FyLBudmx-22" edge="1">
          <mxGeometry relative="1" as="geometry" />
        </mxCell>
        <mxCell id="62Jn57mrGyI6FyLBudmx-33" style="edgeStyle=orthogonalEdgeStyle;rounded=0;orthogonalLoop=1;jettySize=auto;html=1;entryX=0.5;entryY=0;entryDx=0;entryDy=0;startArrow=classic;startFill=1;" parent="1" source="62Jn57mrGyI6FyLBudmx-17" target="62Jn57mrGyI6FyLBudmx-19" edge="1">
          <mxGeometry relative="1" as="geometry" />
        </mxCell>
        <mxCell id="62Jn57mrGyI6FyLBudmx-36" value="" style="group" parent="1" vertex="1" connectable="0">
          <mxGeometry x="330" y="281.67" width="100" height="40" as="geometry" />
        </mxCell>
        <mxCell id="62Jn57mrGyI6FyLBudmx-34" value="" style="rounded=1;whiteSpace=wrap;html=1;" parent="62Jn57mrGyI6FyLBudmx-36" vertex="1">
          <mxGeometry width="100" height="40" as="geometry" />
        </mxCell>
        <mxCell id="62Jn57mrGyI6FyLBudmx-35" value="" style="shape=image;verticalLabelPosition=bottom;labelBackgroundColor=default;verticalAlign=top;aspect=fixed;imageAspect=0;image=https://miro.medium.com/v2/resize:fit:834/0*nVP5nQ-SCXEuTA8n.png;" parent="62Jn57mrGyI6FyLBudmx-36" vertex="1">
          <mxGeometry x="22.916666666666668" y="7.5" width="54.15833333333333" height="25" as="geometry" />
        </mxCell>
        <mxCell id="Ya8PEuzkGXNOlTx8QT48-5" style="edgeStyle=orthogonalEdgeStyle;rounded=1;orthogonalLoop=1;jettySize=auto;html=1;entryX=1;entryY=0.5;entryDx=0;entryDy=0;curved=0;" edge="1" parent="1" source="62Jn57mrGyI6FyLBudmx-40" target="Ya8PEuzkGXNOlTx8QT48-2">
          <mxGeometry relative="1" as="geometry" />
        </mxCell>
        <mxCell id="Ya8PEuzkGXNOlTx8QT48-7" value="HTTP" style="edgeLabel;html=1;align=center;verticalAlign=middle;resizable=0;points=[];" vertex="1" connectable="0" parent="Ya8PEuzkGXNOlTx8QT48-5">
          <mxGeometry x="-0.3546" y="3" relative="1" as="geometry">
            <mxPoint as="offset" />
          </mxGeometry>
        </mxCell>
        <mxCell id="62Jn57mrGyI6FyLBudmx-40" value="IoT Devices&#xa;(Data collect)" style="shape=image;verticalLabelPosition=bottom;labelBackgroundColor=default;verticalAlign=top;aspect=fixed;imageAspect=0;image=https://novatronicec.com/wp-content/uploads/2021/06/esp32-wroom-wifi-bluetooth.jpg;clipPath=inset(5.81% 10.67% 7.21% 7%);fontStyle=1;opacity=50;" parent="1" vertex="1">
          <mxGeometry x="580" y="292" width="140" height="105.9919028340081" as="geometry" />
        </mxCell>
        <mxCell id="NOC3WcpC7XQ2FmaN5iOc-9" value="" style="group" parent="1" vertex="1" connectable="0">
          <mxGeometry x="320" y="420" width="120" height="40" as="geometry" />
        </mxCell>
        <mxCell id="NOC3WcpC7XQ2FmaN5iOc-2" value="" style="rounded=1;whiteSpace=wrap;html=1;" parent="NOC3WcpC7XQ2FmaN5iOc-9" vertex="1">
          <mxGeometry width="120" height="40" as="geometry" />
        </mxCell>
        <mxCell id="NOC3WcpC7XQ2FmaN5iOc-8" value="" style="shape=image;verticalLabelPosition=bottom;labelBackgroundColor=default;verticalAlign=top;aspect=fixed;imageAspect=0;image=https://kanari.com/hs-fs/hubfs/grafana%20logo.png?width=1204&amp;height=311&amp;name=grafana%20logo.png;" parent="NOC3WcpC7XQ2FmaN5iOc-9" vertex="1">
          <mxGeometry x="10" y="7.089999999999975" width="100" height="25.83" as="geometry" />
        </mxCell>
        <mxCell id="Ya8PEuzkGXNOlTx8QT48-6" style="edgeStyle=orthogonalEdgeStyle;rounded=1;orthogonalLoop=1;jettySize=auto;html=1;entryX=1;entryY=0.5;entryDx=0;entryDy=0;dashed=1;curved=0;" edge="1" parent="1" source="Ya8PEuzkGXNOlTx8QT48-2" target="62Jn57mrGyI6FyLBudmx-34">
          <mxGeometry relative="1" as="geometry">
            <Array as="points">
              <mxPoint x="480" y="210" />
              <mxPoint x="480" y="302" />
            </Array>
          </mxGeometry>
        </mxCell>
        <mxCell id="Ya8PEuzkGXNOlTx8QT48-2" value="ngrok secure tunnel" style="image;aspect=fixed;perimeter=ellipsePerimeter;html=1;align=center;shadow=0;dashed=0;spacingTop=3;image=img/lib/active_directory/tunnel.svg;fontStyle=1" vertex="1" parent="1">
          <mxGeometry x="510" y="200" width="100" height="20" as="geometry" />
        </mxCell>
        <mxCell id="Ya8PEuzkGXNOlTx8QT48-12" style="edgeStyle=orthogonalEdgeStyle;rounded=0;orthogonalLoop=1;jettySize=auto;html=1;entryX=1;entryY=0.5;entryDx=0;entryDy=0;" edge="1" parent="1" source="62Jn57mrGyI6FyLBudmx-34" target="62Jn57mrGyI6FyLBudmx-17">
          <mxGeometry relative="1" as="geometry" />
        </mxCell>
        <mxCell id="Ya8PEuzkGXNOlTx8QT48-15" style="edgeStyle=orthogonalEdgeStyle;rounded=1;orthogonalLoop=1;jettySize=auto;html=1;entryX=0;entryY=0.5;entryDx=0;entryDy=0;exitX=0.5;exitY=1;exitDx=0;exitDy=0;curved=0;endArrow=none;endFill=0;startArrow=classic;startFill=1;" edge="1" parent="1" source="NOC3WcpC7XQ2FmaN5iOc-2" target="62Jn57mrGyI6FyLBudmx-11">
          <mxGeometry relative="1" as="geometry">
            <Array as="points">
              <mxPoint x="380" y="490" />
              <mxPoint x="150" y="490" />
              <mxPoint x="150" y="220" />
            </Array>
          </mxGeometry>
        </mxCell>
        <mxCell id="Ya8PEuzkGXNOlTx8QT48-17" style="edgeStyle=orthogonalEdgeStyle;rounded=1;orthogonalLoop=1;jettySize=auto;html=1;entryX=0.5;entryY=0;entryDx=0;entryDy=0;curved=0;" edge="1" parent="1" source="Ya8PEuzkGXNOlTx8QT48-16" target="62Jn57mrGyI6FyLBudmx-11">
          <mxGeometry relative="1" as="geometry">
            <Array as="points">
              <mxPoint x="110" y="230" />
              <mxPoint x="110" y="175" />
              <mxPoint x="235" y="175" />
            </Array>
          </mxGeometry>
        </mxCell>
        <mxCell id="Ya8PEuzkGXNOlTx8QT48-16" value="User" style="points=[[0.35,0,0],[0.98,0.51,0],[1,0.71,0],[0.67,1,0],[0,0.795,0],[0,0.65,0]];verticalLabelPosition=bottom;sketch=0;html=1;verticalAlign=top;aspect=fixed;align=center;pointerEvents=1;shape=mxgraph.cisco19.user;fillColor=#005073;strokeColor=none;" vertex="1" parent="1">
          <mxGeometry x="30" y="195" width="50" height="50" as="geometry" />
        </mxCell>
        <mxCell id="Ya8PEuzkGXNOlTx8QT48-19" style="edgeStyle=orthogonalEdgeStyle;rounded=0;orthogonalLoop=1;jettySize=auto;html=1;entryX=0;entryY=0.5;entryDx=0;entryDy=0;" edge="1" parent="1" source="62Jn57mrGyI6FyLBudmx-22" target="NOC3WcpC7XQ2FmaN5iOc-2">
          <mxGeometry relative="1" as="geometry" />
        </mxCell>
      </root>
    </mxGraphModel>
  </diagram>
</mxfile>
